<?xml version="1.0" encoding="iso-8859-1"?>
<!-- Generator: Adobe Illustrator 19.0.0, SVG Export Plug-In . SVG Version: 6.00 Build 0)  -->
<svg version="1.1" id="Layer_1" xmlns="http://www.w3.org/2000/svg" xmlns:xlink="http://www.w3.org/1999/xlink" x="0px" y="0px"
	 viewBox="0 0 512 512" style="enable-background:new 0 0 512 512;" xml:space="preserve">
<g>
	<g>
		<path d="M308.274,185.669h-42.075v-19.098c25.996-4.81,45.751-27.636,45.751-55.001c0-26.743-39.326-93.512-47.209-106.625
			C262.897,1.877,259.58,0,256,0c-3.58,0-6.897,1.877-8.741,4.945c-7.883,13.113-47.209,79.882-47.209,106.626
			c0,27.366,19.756,50.191,45.751,55.001v19.098h-42.075c-5.633,0-10.199,4.567-10.199,10.199v305.932
			c0,5.632,4.566,10.199,10.199,10.199h104.548c5.633,0,10.199-4.567,10.199-10.199V195.869
			C318.473,190.237,313.907,185.669,308.274,185.669z M220.449,111.57c0-13.747,19.247-52.259,35.551-81.098
			c16.305,28.838,35.551,67.349,35.551,81.098c0,16.059-10.706,29.658-25.352,34.053v-37.315c0-5.632-4.566-10.199-10.199-10.199
			c-5.633,0-10.199,4.567-10.199,10.199v37.315C231.154,141.228,220.449,127.629,220.449,111.57z M298.075,491.602h-84.15V206.068
			h84.15V491.602z"/>
	</g>
</g>
<g>
	<g>
		<path d="M277.099,405.097c-5.633,0-10.199,4.567-10.199,10.199v53.802c0,5.632,4.566,10.199,10.199,10.199
			c5.633,0,10.199-4.567,10.199-10.199v-53.802C287.298,409.664,282.732,405.097,277.099,405.097z"/>
	</g>
</g>
<g>
	<g>
		<path d="M277.099,364.887c-5.633,0-10.199,4.567-10.199,10.199v7.384c0,5.632,4.566,10.199,10.199,10.199
			c5.633,0,10.199-4.567,10.199-10.199v-7.384C287.298,369.454,282.732,364.887,277.099,364.887z"/>
	</g>
</g>
<g>
</g>
<g>
</g>
<g>
</g>
<g>
</g>
<g>
</g>
<g>
</g>
<g>
</g>
<g>
</g>
<g>
</g>
<g>
</g>
<g>
</g>
<g>
</g>
<g>
</g>
<g>
</g>
<g>
</g>
</svg>
